<svg xmlns="http://www.w3.org/2000/svg" xmlns:xlink="http://www.w3.org/1999/xlink" viewBox="0 0 343.16 311.38"><defs><style>.cls-1{fill:#565859;}.cls-2{fill:url(#linear-gradient);}.cls-3{fill:#74a08a;}.cls-4{fill:#719f87;}</style><linearGradient id="linear-gradient" x1="202.65" y1="97.22" x2="216.98" y2="82.8" gradientUnits="userSpaceOnUse"><stop offset="0" stop-color="#2c7150"/><stop offset="1" stop-color="#fff" stop-opacity="0"/></linearGradient></defs><g id="Layer_2" data-name="Layer 2"><g id="Layer_1-2" data-name="Layer 1"><path class="cls-1" d="M0,196H49.24v15.55H16.52v35H45v15.55H16.52v49.25H0Z"/><path class="cls-1" d="M69.37,196H95.94q29.15,0,29.15,33.86a42.86,42.86,0,0,1-3.15,17.25,24.4,24.4,0,0,1-11.1,11.58l17.82,52.65h-17.5L95.77,262.13H85.89v49.25H69.37Zm16.52,51.52h9.4a16.58,16.58,0,0,0,7-1.22,9,9,0,0,0,4-3.48,14.91,14.91,0,0,0,1.87-5.59,61.92,61.92,0,0,0,0-15.39,14.1,14.1,0,0,0-2-5.67,9.25,9.25,0,0,0-4.29-3.48,19.41,19.41,0,0,0-7.29-1.14H85.89Z"/><path class="cls-1" d="M209.32,222.29A29.43,29.43,0,0,1,211.75,210a25.56,25.56,0,0,1,6.4-8.83,27.65,27.65,0,0,1,8.91-5.27,28.76,28.76,0,0,1,19.92,0,27.65,27.65,0,0,1,8.91,5.27,25.56,25.56,0,0,1,6.4,8.83,29.43,29.43,0,0,1,2.43,12.31v5.83H248.2v-5.83q0-6-3.32-8.83a12.28,12.28,0,0,0-15.71,0q-3.33,2.83-3.33,8.83v60.9q0,6,3.33,8.83a12.32,12.32,0,0,0,15.71,0q3.31-2.83,3.32-8.83V261.48H235.08V246.91h29.64v36.28a29.26,29.26,0,0,1-2.43,12.39,25.81,25.81,0,0,1-6.4,8.75,27.44,27.44,0,0,1-8.91,5.26,28.6,28.6,0,0,1-19.92,0,27.44,27.44,0,0,1-8.91-5.26,25.81,25.81,0,0,1-6.4-8.75,29.26,29.26,0,0,1-2.43-12.39Z"/><path class="cls-1" d="M287.76,222.29A29.59,29.59,0,0,1,290.19,210a25.69,25.69,0,0,1,6.4-8.83,27.75,27.75,0,0,1,8.91-5.27,28.78,28.78,0,0,1,19.93,0,27.6,27.6,0,0,1,8.9,5.27,25.56,25.56,0,0,1,6.4,8.83,29.43,29.43,0,0,1,2.43,12.31v5.83H326.64v-5.83q0-6-3.32-8.83a12.28,12.28,0,0,0-15.71,0q-3.33,2.83-3.32,8.83v60.9q0,6,3.32,8.83a12.32,12.32,0,0,0,15.71,0q3.31-2.83,3.32-8.83V261.48H313.52V246.91h29.64v36.28a29.26,29.26,0,0,1-2.43,12.39,25.81,25.81,0,0,1-6.4,8.75,27.4,27.4,0,0,1-8.9,5.26,28.63,28.63,0,0,1-19.93,0,27.55,27.55,0,0,1-8.91-5.26,25.94,25.94,0,0,1-6.4-8.75,29.41,29.41,0,0,1-2.43-12.39Z"/><path class="cls-1" d="M168.45,192.25l-1.15-.82c5.15-7.18,2.9-11.94.28-17.46l-.29-.62c-2.8-5.93-1.12-9.89-1-10l1.3.57s-1.48,3.57,1,8.87l.29.63C171.55,179,174.09,184.39,168.45,192.25Z"/><path class="cls-1" d="M167.11,193.3l-1.28-.61c2.35-4.9,1.4-8.32.08-13.05-.27-.95-.54-1.94-.81-3-1.7-6.72.75-11.21.85-11.4l1.24.69a15.25,15.25,0,0,0-.72,10.37c.27,1.05.54,2,.8,3C168.63,184.1,169.69,187.92,167.11,193.3Z"/><path class="cls-1" d="M166.66,192.23l-1.41-.08a9.09,9.09,0,0,0-1-4.86,31.51,31.51,0,0,1-1.5-4.2c-1.88-6.75,1.32-10,2-10.34l.54-.26.71,1-.44.46-.41-.39.28.47s-3,2.5-1.31,8.72a31.1,31.1,0,0,0,1.44,4A10.45,10.45,0,0,1,166.66,192.23Z"/><path class="cls-2" d="M237.68,77.88a18.86,18.86,0,0,0-5.55-2.71,30.53,30.53,0,0,0-7.43-1.29c-1.21-.06-2.6,0-3.93,0l-4,0-13.52,3-4.92,13.74A2.77,2.77,0,0,0,202,94.08l11.82-4.37c7.4-2.57,13.48-4.75,19.57-3.64A17.73,17.73,0,0,1,237.68,77.88Z"/><path class="cls-1" d="M178.56,68.66l-74.3.58-4.85,4.69,28.87,12.6-12.5-8.1a2.15,2.15,0,0,1,1.21-4l48.61.78h0c-1.7,2.29-3.49,4.52-5.34,6.72q-4.51,5.33-9.51,10.29a176.06,176.06,0,0,1-21.44,18.2,176.41,176.41,0,0,1-24.18,14.62,176.68,176.68,0,0,1-26.38,10.48,178.53,178.53,0,0,0,27.07-9,177.74,177.74,0,0,0,25.34-13.38,179.71,179.71,0,0,0,23-17.33q5.4-4.8,10.42-10c1.66-1.76,3.29-3.55,4.88-5.39.79-.92,1.57-1.85,2.34-2.81s1.51-1.89,2.3-3h0Z"/><path class="cls-3" d="M184.85,59.49c-7.5-.89-15-1.85-22.44-3-8.69-1.31-17.34-2.91-26-4.62s-17.2-3.68-25.73-5.81-17-4.45-25.32-7.11l-2.48,4.18,22.34,17.18-7.6-8.35a2.09,2.09,0,0,1,2.11-3.42c3.21.91,6.41,1.79,9.64,2.64,8.58,2.24,17.21,4.33,25.9,6.17s17.39,3.55,26.15,5c6.38,1.1,12.8,2,19.22,2.88C182.28,63,183.76,61,184.85,59.49Z"/><path class="cls-3" d="M189.24,104.5h-7.39l.91,1.1a17.54,17.54,0,0,1,6.63,3.9,18.25,18.25,0,0,1-.15,36.49h-.53v-5.13L184.37,146h-.06l-4.16,5h9.09a23.24,23.24,0,0,0,0-46.48Z"/><path class="cls-1" d="M164.48,161.22H136a16.22,16.22,0,1,1,8-30.33l2.71,1.55.52-3.08a27.06,27.06,0,0,1,7.91-15l.74-.59h-1.63c-1,0-2,0-3,0H149.8a31.47,31.47,0,0,0-6.26,12.12A20.58,20.58,0,1,0,136,165.58h35.14A20.59,20.59,0,0,1,164.48,161.22Z"/><path class="cls-3" d="M211.19,125.2,210,129.4a16.22,16.22,0,0,1-4.46,31.82H172.83a16.18,16.18,0,0,0,6.64,1.44H184l2.44,2.92h19.11a20.59,20.59,0,0,0,5.65-40.38Z"/><path class="cls-3" d="M181.48,165.55H188l-3.68-4.42h-2.87a16.16,16.16,0,0,1,0-32.32H182v4.55l3.84-4.55h.06l3.68-4.42h-8.05a20.58,20.58,0,1,0,0,41.16Z"/><path class="cls-3" d="M187.33,50.67l-3.72-1-3.7-1.11-7.41-2.22-7.35-2.38c-2.46-.78-4.9-1.61-7.34-2.46s-4.88-1.67-7.3-2.55c-4.85-1.76-9.71-3.51-14.51-5.39Q121.54,28,107.33,21.81c-9.46-4.12-18.88-8.44-28.06-13l-3,3.52L95.69,35.2,89.23,24.55a2.73,2.73,0,0,1,3.49-3.89Q99,23.6,105.3,26.41q14.25,6.36,28.78,12.05c4.83,1.93,9.71,3.73,14.59,5.56,2.44.9,4.9,1.74,7.35,2.62s4.91,1.74,7.38,2.55l7.41,2.46L178.28,54,182,55.11l3.76,1.07,3.65,1.09,0,.07c-.71,1.61-13.64,33.27-38,54.05l-.09.08c-.15.13-.3.27-.46.39a25,25,0,0,1,3.1-.66c6.33-.43,21.6,0,34.46,11.79,0,0-10.49-13.19-26.43-14.68,5.55-5.07,7.56-7.84,12.15-13.74a185.88,185.88,0,0,0,13.45-19.33q3-5.07,5.72-10.3,1.35-2.61,2.64-5.28c.8-1.67,1.89-3.91,2.69-5.76Z"/><path class="cls-3" d="M257.5,85.33c-2.84-5.72-10.06-7.27-13.51-7.68-1-4.17-4.64-10-13.76-10.81h-.18c-7.39-.63-19,1-26.56,2.31h0l7.28-18.39h0L208.29,50c-13.38-4.64-26.7-9.78-39.9-15.09s-26.34-10.87-39.34-16.7S103.11,6.41,90.33.09C87.4-1.36,115,14.68,127.85,20.83s25.91,12,39,17.7c12.27,5.29,24.58,10.38,37.12,15.14h0s-10.54,25.17-20.8,47.18h6.62a23.11,23.11,0,0,1,13.43,4.3h0L217,98l.45-.25c.59-.34,2.59-1.27,3.73-1.79,3-1.35,7.21-2.19,12.76-3.39a16.06,16.06,0,0,1,5.06-.46,13.27,13.27,0,0,1,3.54.78,13.46,13.46,0,0,1,3,1.57,15.76,15.76,0,0,1,2.05,1.62,28,28,0,0,1,2.81,3.31,33.07,33.07,0,0,0,2.64,2.85,11,11,0,0,0,2.79-2.14C259.35,96.37,259.86,90.08,257.5,85.33Zm-4.43,13.18a8.92,8.92,0,0,0-4-8.67l-.13-.08c-.33-.22-.72-.41-1.09-.62-4.75-2.36-9.85-2.39-14.51-2a69.83,69.83,0,0,0-14.06,3.16c-2.8.92-7.28,2.56-10,3.7l-8.13,2.89a4.56,4.56,0,0,1-5.81-5.86l6.22-17h0c7-1.27,20.35-3.4,28.1-2.74h.16c9.26.83,10,7.78,10,8.55l.1,2.06h0s.94,0,2.31.07c.26,0,.72,0,1.33.13,7.89,1,10.42,5.49,10.42,5.49C256.69,92.39,253.22,98.25,253.07,98.51Z"/><rect class="cls-4" x="146.68" y="190.8" width="40" height="14" rx="6.79"/><path class="cls-1" d="M175.82,299h-17.5a180.54,180.54,0,0,0,2.89-45.46,180.78,180.78,0,0,0-9.05-46.14h29.05a166.94,166.94,0,0,0-5.39,91.6Z"/><rect class="cls-1" x="152.68" y="299.03" width="28" height="12.34" rx="3.6"/></g></g></svg>