<?xml version="1.0" encoding="UTF-8"?><svg id="Layer_2" xmlns="http://www.w3.org/2000/svg" viewBox="0 0 400 201.65"><defs><style>.cls-1,.cls-2{fill:#71a087;}.cls-3{letter-spacing:.02em;}.cls-3,.cls-4,.cls-5{font-family:DINCondensed-Bold, 'DIN Condensed';}.cls-3,.cls-5{fill:#fff;font-size:56.17px;}.cls-4{font-size:114.37px;}.cls-4,.cls-6{stroke:#616061;stroke-miterlimit:10;}.cls-4,.cls-6,.cls-7{fill:#565859;}.cls-5{letter-spacing:.03em;}.cls-7,.cls-2{fill-rule:evenodd;}</style></defs><g id="BADGE"><rect class="cls-1" x="0" y="121.65" width="400" height="80" rx="13" ry="13"/><g><text class="cls-5" transform="translate(132.49 179.9)"><tspan x="0" y="0">LEFT</tspan></text><text class="cls-5" transform="translate(235.62 179.14)"><tspan x="0" y="0">HOOK</tspan></text><text class="cls-3" transform="translate(64.35 179.9)"><tspan x="0" y="0">BY</tspan></text></g></g><g id="FRIGG"><path class="cls-6" d="M147.74,16.97h35.79v11.06h-23.78v24.89h20.72v11.06h-20.72v35.04h-12.01V16.97Z"/><path class="cls-6" d="M193.68,16.97h19.31c14.13,0,21.19,8.03,21.19,24.09,0,4.76-.77,8.86-2.3,12.27-1.53,3.42-4.22,6.17-8.06,8.24l12.95,37.46h-12.71l-11.18-35.04h-7.18v35.04h-12.01V16.97Zm12.01,36.65h6.83c2.12,0,3.81-.29,5.06-.87,1.25-.58,2.22-1.4,2.88-2.48,.67-1.08,1.12-2.4,1.35-3.98,.23-1.57,.35-3.4,.35-5.47s-.12-3.9-.35-5.47c-.24-1.57-.73-2.92-1.47-4.03-.75-1.11-1.79-1.94-3.12-2.48-1.34-.54-3.1-.81-5.3-.81h-6.24v25.59Z"/><path class="cls-6" d="M278.29,36.69c0-3.25,.58-6.12,1.74-8.61,1.16-2.49,2.68-4.55,4.57-6.18,1.89-1.62,4.01-2.85,6.37-3.68,2.35-.83,4.73-1.25,7.12-1.25s4.76,.42,7.12,1.25c2.35,.83,4.48,2.06,6.37,3.68,1.89,1.63,3.41,3.68,4.57,6.18,1.16,2.49,1.74,5.37,1.74,8.61v4.08h-11.81v-4.08c0-2.79-.79-4.85-2.37-6.18-1.58-1.32-3.45-1.98-5.61-1.98s-4.03,.66-5.61,1.98c-1.58,1.32-2.37,3.38-2.37,6.18v42.61c0,2.8,.79,4.86,2.37,6.18,1.58,1.32,3.45,1.98,5.61,1.98s4.03-.66,5.61-1.98c1.58-1.32,2.37-3.38,2.37-6.18v-15.19h-9.38v-10.2h21.19v25.39c0,3.33-.58,6.22-1.74,8.67-1.16,2.46-2.68,4.5-4.57,6.12-1.89,1.63-4.01,2.85-6.37,3.68-2.35,.83-4.73,1.25-7.12,1.25s-4.77-.42-7.12-1.25c-2.35-.83-4.48-2.06-6.37-3.68-1.89-1.62-3.41-3.66-4.57-6.12-1.16-2.45-1.74-5.34-1.74-8.67V36.69Z"/><path class="cls-6" d="M329.06,36.69c0-3.25,.58-6.12,1.74-8.61s2.68-4.55,4.57-6.18c1.89-1.62,4.01-2.85,6.37-3.68,2.35-.83,4.73-1.25,7.12-1.25s4.76,.42,7.12,1.25c2.35,.83,4.48,2.06,6.37,3.68,1.89,1.63,3.41,3.68,4.57,6.18,1.16,2.49,1.74,5.37,1.74,8.61v4.08h-11.81v-4.08c0-2.79-.79-4.85-2.37-6.18-1.58-1.32-3.45-1.98-5.61-1.98s-4.03,.66-5.61,1.98c-1.58,1.32-2.37,3.38-2.37,6.18v42.61c0,2.8,.79,4.86,2.37,6.18,1.58,1.32,3.45,1.98,5.61,1.98s4.03-.66,5.61-1.98c1.58-1.32,2.37-3.38,2.37-6.18v-15.19h-9.38v-10.2h21.19v25.39c0,3.33-.58,6.22-1.74,8.67-1.16,2.46-2.68,4.5-4.57,6.12-1.89,1.63-4.01,2.85-6.37,3.68-2.35,.83-4.73,1.25-7.12,1.25s-4.77-.42-7.12-1.25c-2.35-.83-4.48-2.06-6.37-3.68-1.89-1.62-3.41-3.66-4.57-6.12-1.16-2.45-1.74-5.34-1.74-8.67V36.69Z"/><text class="cls-4" transform="translate(243.51 98.4) scale(1.02 1)"><tspan x="0" y="0">I</tspan></text></g><g id="ICON"><path class="cls-2" d="M93.72,73.79c7.86-7.18,14-7.02,20.8,.72,2.94,4.35,.48,8.46-1.78,10.48-.02,.02-.04,.03-.05,.05l-2.28,1.92c2.32-4.48-1.91-5.1-3.52-4.05-.12,.08-.23,.16-.34,.26l-.03,.03-34.94,30.92c-.18,.15-.45,.13-.6-.04l-10.23-11.58c-.16-.18-.14-.45,.04-.61l32.94-28.1Z"/><path class="cls-7" d="M125.17,11.41l.32-8.7c.04-1.23-.41-1.26-1.85-.05l-42.08,35.62,7.98,7.85,33.42-29.03c1.42-1.25,2.16-4.16,2.21-5.69h0Z"/><path class="cls-2" d="M124.79,32.92l.32-8.7c.04-1.23-.41-1.26-1.85-.05l-30.28,25.64,8.05,7.51,21.54-18.71c1.42-1.25,2.16-4.16,2.21-5.69h0Z"/><path class="cls-7" d="M124.96,54.26l.32-8.7c.04-1.23-.41-1.26-1.85-.05l-18.01,15.24,7.88,7.37,9.43-8.17c1.42-1.25,2.16-4.16,2.23-5.69h0Z"/><path class="cls-2" d="M88.65,69.04L35.29,21.17c-3.14-2.81-3.26-5.55-3.12-8.58l.38-9.17L97.11,61.67l-8.46,7.37Z"/><path class="cls-7" d="M76.09,79.78L34.75,42.73c-1.65-1.49-2.15-6.15-2.08-7.85l.65-8.58,51.14,46.26-8.37,7.23Z"/><path class="cls-2" d="M62.39,91.85l-27.96-26.7c-1.93-1.84-3.17-4.71-3.07-6.67l.56-9.77,39.27,35.47-8.79,7.66Z"/></g></svg>